<svg width="44" height="44" viewBox="0 0 44 44" fill="none" xmlns="http://www.w3.org/2000/svg">
<rect width="43" height="43" transform="translate(0.549377 0.177673)" fill="white"/>
<path fill-rule="evenodd" clip-rule="evenodd" d="M14.8288 5.35242V9.10302H16.5109V18.491C16.5109 18.7082 16.4402 18.9196 16.3094 19.0931L5.67379 33.1967C4.18315 35.1734 5.5933 38.003 8.06906 38.003H35.9772C38.4625 38.003 39.87 35.1541 38.3599 33.1802L27.5846 19.0947C27.4511 18.9203 27.3788 18.7067 27.3788 18.4871V9.10302H29.1964V5.35242H14.8288ZM25.5439 22.1199H25.3681C24.4213 22.1199 23.6538 22.8874 23.6538 23.8342C23.6538 24.781 24.4213 25.5485 25.3681 25.5485H25.5439C26.4907 25.5485 27.2582 24.781 27.2582 23.8342C27.2582 22.8874 26.4907 22.1199 25.5439 22.1199ZM21.6319 30.2298V30.054C21.6319 28.7309 20.5593 27.6584 19.2362 27.6584C17.9132 27.6584 16.8406 28.7309 16.8406 30.054V30.2298C16.8406 31.5528 17.9132 32.6254 19.2362 32.6254C20.5593 32.6254 21.6319 31.5528 21.6319 30.2298ZM20.2032 9.17219H23.8955V18.2271H20.2032V9.17219Z" fill="#4D4D4D"/>
<path d="M14.8288 9.10302H14.3288V9.60302H14.8288V9.10302ZM14.8288 5.35242V4.85242H14.3288V5.35242H14.8288ZM16.5109 9.10302H17.0109V8.60302H16.5109V9.10302ZM16.3094 19.0931L15.9102 18.792L15.9102 18.792L16.3094 19.0931ZM5.67379 33.1967L6.073 33.4977L6.073 33.4977L5.67379 33.1967ZM38.3599 33.1802L37.9628 33.484L37.9628 33.484L38.3599 33.1802ZM27.5846 19.0947L27.1874 19.3985L27.1874 19.3985L27.5846 19.0947ZM27.3788 9.10302V8.60302H26.8788V9.10302H27.3788ZM29.1964 9.10302V9.60302H29.6964V9.10302H29.1964ZM29.1964 5.35242H29.6964V4.85242H29.1964V5.35242ZM23.8955 9.17219H24.3955V8.67219H23.8955V9.17219ZM20.2032 9.17219V8.67219H19.7032V9.17219H20.2032ZM23.8955 18.2271V18.7271H24.3955V18.2271H23.8955ZM20.2032 18.2271H19.7032V18.7271H20.2032V18.2271ZM15.3288 9.10302V5.35242H14.3288V9.10302H15.3288ZM16.5109 8.60302H14.8288V9.60302H16.5109V8.60302ZM17.0109 18.491V9.10302H16.0109V18.491H17.0109ZM16.7086 19.3941C16.9048 19.1339 17.0109 18.8169 17.0109 18.491H16.0109C16.0109 18.5996 15.9756 18.7053 15.9102 18.792L16.7086 19.3941ZM6.073 33.4977L16.7086 19.3941L15.9102 18.792L5.27457 32.8956L6.073 33.4977ZM8.06906 37.503C6.00593 37.503 4.8308 35.145 6.073 33.4977L5.27457 32.8956C3.53549 35.2018 5.18068 38.503 8.06906 38.503V37.503ZM35.9772 37.503H8.06906V38.503H35.9772V37.503ZM37.9628 33.484C39.2212 35.1289 38.0483 37.503 35.9772 37.503V38.503C38.8767 38.503 40.5188 35.1793 38.757 32.8764L37.9628 33.484ZM27.1874 19.3985L37.9628 33.484L38.757 32.8764L27.9817 18.7909L27.1874 19.3985ZM26.8788 18.4871C26.8788 18.8166 26.9873 19.1369 27.1874 19.3985L27.9817 18.7909C27.915 18.7037 27.8788 18.5969 27.8788 18.4871H26.8788ZM26.8788 9.10302V18.4871H27.8788V9.10302H26.8788ZM29.1964 8.60302H27.3788V9.60302H29.1964V8.60302ZM28.6964 5.35242V9.10302H29.6964V5.35242H28.6964ZM14.8288 5.85242H29.1964V4.85242H14.8288V5.85242ZM25.3681 22.6199H25.5439V21.6199H25.3681V22.6199ZM24.1538 23.8342C24.1538 23.1636 24.6975 22.6199 25.3681 22.6199V21.6199C24.1452 21.6199 23.1538 22.6113 23.1538 23.8342H24.1538ZM25.3681 25.0485C24.6975 25.0485 24.1538 24.5048 24.1538 23.8342H23.1538C23.1538 25.0571 24.1452 26.0485 25.3681 26.0485V25.0485ZM25.5439 25.0485H25.3681V26.0485H25.5439V25.0485ZM26.7582 23.8342C26.7582 24.5048 26.2145 25.0485 25.5439 25.0485V26.0485C26.7668 26.0485 27.7582 25.0571 27.7582 23.8342H26.7582ZM25.5439 22.6199C26.2145 22.6199 26.7582 23.1636 26.7582 23.8342H27.7582C27.7582 22.6113 26.7668 21.6199 25.5439 21.6199V22.6199ZM21.1319 30.054V30.2298H22.1319V30.054H21.1319ZM19.2362 28.1584C20.2832 28.1584 21.1319 29.0071 21.1319 30.054H22.1319C22.1319 28.4548 20.8354 27.1584 19.2362 27.1584V28.1584ZM17.3406 30.054C17.3406 29.0071 18.1893 28.1584 19.2362 28.1584V27.1584C17.637 27.1584 16.3406 28.4548 16.3406 30.054H17.3406ZM17.3406 30.2298V30.054H16.3406V30.2298H17.3406ZM19.2362 32.1254C18.1893 32.1254 17.3406 31.2767 17.3406 30.2298H16.3406C16.3406 31.829 17.637 33.1254 19.2362 33.1254V32.1254ZM21.1319 30.2298C21.1319 31.2767 20.2832 32.1254 19.2362 32.1254V33.1254C20.8354 33.1254 22.1319 31.829 22.1319 30.2298H21.1319ZM23.8955 8.67219H20.2032V9.67219H23.8955V8.67219ZM24.3955 18.2271V9.17219H23.3955V18.2271H24.3955ZM20.2032 18.7271H23.8955V17.7271H20.2032V18.7271ZM19.7032 9.17219V18.2271H20.7032V9.17219H19.7032Z" fill="#4D4D4D"/>
</svg>
