<svg width="24" height="23" viewBox="0 0 24 23" fill="none" xmlns="http://www.w3.org/2000/svg">
<path fill-rule="evenodd" clip-rule="evenodd" d="M7.36048 0.149353V2.70658H8.50737V9.10748C8.50737 9.25557 8.45917 9.3997 8.36998 9.518L1.11843 19.1341C0.102085 20.4818 1.06355 22.4111 2.75157 22.4111H21.7798C23.4744 22.4111 24.434 20.4687 23.4044 19.1228L16.0576 9.51909C15.9666 9.40018 15.9173 9.25454 15.9173 9.10482V2.70658H17.1566V0.149353H7.36048ZM14.6662 11.5817H14.5464C13.9008 11.5817 13.3775 12.105 13.3775 12.7506C13.3775 13.3961 13.9008 13.9194 14.5464 13.9194H14.6662C15.3118 13.9194 15.8351 13.3961 15.8351 12.7506C15.8351 12.105 15.3118 11.5817 14.6662 11.5817ZM11.999 17.1112V16.9913C11.999 16.0892 11.2676 15.358 10.3655 15.358C9.46348 15.358 8.73216 16.0892 8.73216 16.9913V17.1112C8.73216 18.0132 9.46348 18.7446 10.3655 18.7446C11.2676 18.7446 11.999 18.0132 11.999 17.1112ZM11.0248 2.75374H13.5423V8.92754H11.0248V2.75374Z" fill="white"/>
</svg>
