<svg width="44" height="44" viewBox="0 0 44 44" fill="none" xmlns="http://www.w3.org/2000/svg">
<rect width="43" height="43" transform="translate(0.5 0.761719)" fill="white"/>
<path fill-rule="evenodd" clip-rule="evenodd" d="M28.1668 6.01176H36.3335C38.3043 6.01176 39.9168 7.62426 39.9168 9.59509V39.0951C39.9168 41.0659 38.3043 42.6784 36.3335 42.6784H7.66683C5.696 42.6784 4.0835 41.0659 4.0835 39.0951V9.59509C4.0835 7.62426 5.696 6.01176 7.66683 6.01176H15.8335V5.42843C15.8335 3.45759 17.446 1.84509 19.4168 1.84509H24.5835C26.5543 1.84509 28.1668 3.45759 28.1668 5.42843V6.01176ZM21.7085 5.42843C20.4428 5.42843 19.4168 6.45444 19.4168 7.72009C19.4168 8.98574 20.4428 10.0118 21.7085 10.0118H22.2918C23.5575 10.0118 24.5835 8.98574 24.5835 7.72009C24.5835 6.45444 23.5575 5.42843 22.2918 5.42843H21.7085ZM15.6002 23.4618L18.8002 26.6618L28.4002 17.0618L30.8002 19.4618L18.8002 31.4618L13.2002 25.8618L15.6002 23.4618Z" fill="#666666"/>
</svg>
