<svg width="30" height="30" viewBox="0 0 30 30" fill="none" xmlns="http://www.w3.org/2000/svg">
<path fill-rule="evenodd" clip-rule="evenodd" d="M19.2046 4.09891H24.7728C26.1165 4.09891 27.216 5.19834 27.216 6.54209V26.6557C27.216 27.9995 26.1165 29.0989 24.7728 29.0989H5.22736C3.88361 29.0989 2.78418 27.9995 2.78418 26.6557V6.54209C2.78418 5.19834 3.88361 4.09891 5.22736 4.09891H10.7955V3.70118C10.7955 2.35743 11.895 1.258 13.2387 1.258H16.7615C18.1052 1.258 19.2046 2.35743 19.2046 3.70118V4.09891ZM14.8012 3.70118C13.9382 3.70118 13.2387 4.40073 13.2387 5.26368C13.2387 6.12662 13.9382 6.82621 14.8012 6.82621H15.1989C16.0619 6.82621 16.7615 6.12662 16.7615 5.26368C16.7615 4.40073 16.0619 3.70118 15.1989 3.70118H14.8012ZM10.6365 15.9967L12.8183 18.1785L19.3637 11.633L21.0001 13.2694L12.8183 21.4512L9.00011 17.633L10.6365 15.9967Z" fill="white"/>
</svg>
