<svg width="44" height="44" viewBox="0 0 44 44" fill="none" xmlns="http://www.w3.org/2000/svg">
<rect width="43" height="43" transform="translate(0.549377 0.177689)" fill="white"/>
<path fill-rule="evenodd" clip-rule="evenodd" d="M7.04938 1.67769C4.28795 1.67769 2.04938 3.91627 2.04938 6.67769V36.6777C2.04938 39.4391 4.28795 41.6777 7.04938 41.6777H37.0494C39.8108 41.6777 42.0494 39.4391 42.0494 36.6777V6.67769C42.0494 3.91627 39.8108 1.67769 37.0494 1.67769H7.04938ZM12.9203 9.58705H10.0782C10.0782 13.9731 11.1464 22.908 17.658 22.908C24.1713 22.908 25.4733 13.9725 25.4733 9.58705H22.039V7.15538H26.776C27.4076 7.27379 28.6708 7.69225 28.6708 11.4818C28.6708 16.2188 26.4207 22.14 19.6705 26.4033V31.237C19.6705 32.3376 19.6705 33.9825 25.4733 33.9825C29.1682 33.9825 30.9209 30.6357 30.9209 29.4824V29.3347C30.6215 29.2099 30.3394 29.1319 30.0792 29.0599C28.9896 28.7586 28.2822 28.5629 28.2822 25.4806C28.2822 21.2787 30.2477 21.2787 32.6723 21.2787C37.0624 21.1786 37.0624 23.16 37.0624 25.4806C37.0624 28.5324 36.3936 28.7204 35.355 29.0123C35.094 29.0857 34.8098 29.1656 34.5069 29.2991V29.4824C34.5069 31.744 33.2712 36.2 25.4733 36.2C16.1778 36.2 16.1778 32.365 16.1778 31.237V26.4033C13.1324 25.3719 7.04146 20.9436 7.04146 11.4818C7.04146 11.2965 7.04012 11.114 7.03881 10.9352C7.0231 8.78923 7.01114 7.15545 9.35374 7.15545H12.9203V9.58705Z" fill="#57686F"/>
</svg>
