<svg width="30" height="30" viewBox="0 0 30 30" fill="none" xmlns="http://www.w3.org/2000/svg">
<path fill-rule="evenodd" clip-rule="evenodd" d="M4.80631 1.14386C2.92351 1.14386 1.39722 2.67016 1.39722 4.55295V25.0075C1.39722 26.8903 2.92351 28.4166 4.80631 28.4166H25.2609C27.1436 28.4166 28.67 26.8903 28.67 25.0075V4.55295C28.67 2.67016 27.1436 1.14386 25.2609 1.14386H4.80631ZM8.80921 6.53661H6.87141C6.87141 9.52709 7.59973 15.6191 12.0395 15.6191C16.4803 15.6191 17.3681 9.52669 17.3681 6.53661H15.0265V4.87865H18.2563C18.6869 4.95938 19.5482 5.2447 19.5482 7.82848C19.5482 11.0583 18.014 15.0954 13.4116 18.0022V21.2979C13.4116 22.0483 13.4116 23.1699 17.3681 23.1699C19.8873 23.1699 21.0823 20.888 21.0823 20.1016V20.0009C20.8782 19.9158 20.6859 19.8626 20.5085 19.8135C19.7655 19.6081 19.2832 19.4747 19.2832 17.3731C19.2832 14.5082 20.6233 14.5082 22.2765 14.5082C25.2697 14.4399 25.2697 15.7909 25.2697 17.3731C25.2697 19.4539 24.8137 19.5821 24.1056 19.7811C23.9276 19.8311 23.7339 19.8856 23.5273 19.9766V20.1016C23.5273 21.6436 22.6848 24.6818 17.3681 24.6818C11.0302 24.6818 11.0302 22.067 11.0302 21.2979V18.0022C8.95382 17.299 4.80091 14.2797 4.80091 7.82848C4.80091 7.70214 4.79999 7.57771 4.7991 7.4558C4.78839 5.99264 4.78023 4.8787 6.37746 4.8787H8.80921V6.53661Z" fill="white"/>
</svg>
