<svg width="44" height="44" viewBox="0 0 44 44" fill="none" xmlns="http://www.w3.org/2000/svg">
<rect width="43" height="43" transform="translate(0.549377 0.177673)" fill="white"/>
<path fill-rule="evenodd" clip-rule="evenodd" d="M14.6525 35.9828L17.7085 32.9268C18.4102 32.2251 19.3248 31.7757 20.3091 31.649L23.6818 31.2149C24.7783 31.0737 25.7972 30.5731 26.579 29.7913L36.1915 20.1788C39.6829 16.6874 39.6829 11.0269 36.1915 7.53556C32.7002 4.04424 27.0397 4.04423 23.5483 7.53556L14.0407 17.0432C13.195 17.8889 12.6804 19.0098 12.5904 20.2024L12.3322 23.6236C12.2524 24.6808 11.7963 25.6743 11.0467 26.4239L8.07019 29.4004C6.25253 31.2181 6.25253 34.1651 8.07019 35.9828C9.88785 37.8004 12.8349 37.8004 14.6525 35.9828ZM13.6427 33.1038L17.3301 29.4164C18.0052 28.7413 18.9246 28.368 19.8792 28.3812L22.4157 28.4162C23.7656 28.4349 25.0657 27.9069 26.0204 26.9523L33.8596 19.1131C36.4218 16.5508 36.4218 12.3966 33.8596 9.83431C31.3678 7.34257 27.3705 7.274 24.7959 9.62859L24.7939 9.62661L24.7436 9.67696C24.6886 9.72829 24.6344 9.78074 24.5808 9.83431L16.8767 17.5384C15.8433 18.5718 15.3138 20.0055 15.4273 21.4624L15.6357 24.1365C15.7147 25.1508 15.3461 26.1489 14.6267 26.8683L11.0169 30.478C10.2919 31.2031 10.2919 32.3787 11.0169 33.1038C11.742 33.8289 12.9176 33.8289 13.6427 33.1038ZM24.7436 9.67696L22.6726 11.7479L24.0868 13.1621L26.2081 11.0408L24.7959 9.62859C24.7784 9.6446 24.7609 9.66073 24.7436 9.67696ZM23.4323 13.8138L22.018 12.3996L19.8967 14.5209L21.3109 15.9352L23.4323 13.8138ZM19.0971 15.3233L20.5114 16.7375L18.39 18.8588L16.9758 17.4446L19.0971 15.3233ZM30.5532 13.1738C30.1627 12.7833 29.5296 12.7833 29.139 13.1738L19.2395 23.0733C18.849 23.4638 18.849 24.097 19.2395 24.4875C19.6301 24.878 20.2632 24.878 20.6537 24.4875L30.5532 14.588C30.9438 14.1975 30.9438 13.5643 30.5532 13.1738Z" fill="#4D4D4D"/>
</svg>
