<svg width="31" height="31" viewBox="0 0 31 31" fill="none" xmlns="http://www.w3.org/2000/svg">
<path fill-rule="evenodd" clip-rule="evenodd" d="M7.7495 29.4069L10.6053 26.5511C11.261 25.8953 12.1157 25.4754 13.0355 25.357L16.1873 24.9513C17.2119 24.8194 18.1641 24.3516 18.8947 23.621L27.8775 14.6382C31.1401 11.3755 31.1401 6.08585 27.8775 2.82324C24.6149 -0.439365 19.3252 -0.439374 16.0625 2.82324L7.17778 11.708C6.38748 12.4983 5.90659 13.5458 5.82249 14.6603L5.5812 17.8573C5.50663 18.8453 5.08041 19.7737 4.37992 20.4742L1.5984 23.2557C-0.100183 24.9543 -0.100183 27.7082 1.5984 29.4069C3.29698 31.1054 6.05097 31.1054 7.7495 29.4069ZM6.80585 26.7165L10.2517 23.2706C10.8826 22.6398 11.7417 22.2909 12.6338 22.3033L15.0041 22.336C16.2656 22.3534 17.4805 21.86 18.3727 20.968L25.6983 13.6423C28.0927 11.2479 28.0927 7.36582 25.6983 4.97139C23.3698 2.64289 19.6343 2.57881 17.2284 4.77915L17.2265 4.7773L17.1795 4.82435C17.1281 4.87232 17.0775 4.92133 17.0274 4.97139L9.82799 12.1708C8.86228 13.1365 8.36747 14.4763 8.47354 15.8377L8.66829 18.3366C8.74211 19.2845 8.39766 20.2172 7.72539 20.8895L4.35207 24.2627C3.67456 24.9403 3.67456 26.0389 4.35207 26.7165C5.02967 27.3941 6.12825 27.3941 6.80585 26.7165ZM17.1795 4.82435L15.2442 6.75962L16.5657 8.08117L18.5481 6.09884L17.2284 4.77915C17.212 4.79411 17.1957 4.80918 17.1795 4.82435ZM15.9541 8.69018L14.6325 7.36863L12.6501 9.35096L13.9717 10.6726L15.9541 8.69018ZM11.9029 10.1008L13.2246 11.4223L11.2421 13.4047L9.92059 12.0831L11.9029 10.1008ZM22.6085 8.09211C22.2436 7.72719 21.652 7.72719 21.287 8.09211L12.036 17.3431C11.6711 17.708 11.6711 18.2997 12.036 18.6646C12.401 19.0296 12.9926 19.0296 13.3576 18.6646L22.6085 9.41366C22.9735 9.04874 22.9735 8.45703 22.6085 8.09211Z" fill="white"/>
</svg>
