<svg width="44" height="44" viewBox="0 0 44 44" fill="none" xmlns="http://www.w3.org/2000/svg">
<rect width="43" height="43" transform="translate(0.549377 0.177689)" fill="white"/>
<path d="M26.8985 10.1987C26.8985 14.3408 23.5406 17.6987 19.3985 17.6987C15.2563 17.6987 11.8985 14.3408 11.8985 10.1987C11.8985 6.05655 15.2563 2.69868 19.3985 2.69868C23.5406 2.69868 26.8985 6.05655 26.8985 10.1987Z" fill="#57686F"/>
<path d="M3.29022 29.555V35.2819H21.9869C23.166 33.9625 26.6189 30.1783 30.9983 25.5967C15.2999 19.4655 5.98524 25.6809 3.29022 29.555Z" fill="#57686F"/>
<path d="M24.8802 36.8338L33.9964 27.9627L37.4763 31.6385L28.409 40.6568H24.8802V36.8338Z" fill="#57686F"/>
<path d="M37.2228 25.1283L35.5648 26.7863L38.7506 30.3152L40.5011 28.6348C40.8911 28.2604 40.9129 27.6438 40.5503 27.2428L38.6717 25.1648C38.288 24.7405 37.6273 24.7238 37.2228 25.1283Z" fill="#57686F"/>
<path d="M26.8985 10.1987C26.8985 14.3408 23.5406 17.6987 19.3985 17.6987C15.2563 17.6987 11.8985 14.3408 11.8985 10.1987C11.8985 6.05655 15.2563 2.69868 19.3985 2.69868C23.5406 2.69868 26.8985 6.05655 26.8985 10.1987Z" stroke="#57686F"/>
<path d="M3.29022 29.555V35.2819H21.9869C23.166 33.9625 26.6189 30.1783 30.9983 25.5967C15.2999 19.4655 5.98524 25.6809 3.29022 29.555Z" stroke="#57686F"/>
<path d="M24.8802 36.8338L33.9964 27.9627L37.4763 31.6385L28.409 40.6568H24.8802V36.8338Z" stroke="#57686F"/>
<path d="M37.2228 25.1283L35.5648 26.7863L38.7506 30.3152L40.5011 28.6348C40.8911 28.2604 40.9129 27.6438 40.5503 27.2428L38.6717 25.1648C38.288 24.7405 37.6273 24.7238 37.2228 25.1283Z" stroke="#57686F"/>
</svg>
