<svg width="30" height="30" viewBox="0 0 30 30" fill="none" xmlns="http://www.w3.org/2000/svg">
<path d="M18.3398 6.95368C18.3398 9.77784 16.0503 12.0673 13.2262 12.0673C10.402 12.0673 8.11255 9.77784 8.11255 6.95368C8.11255 4.12948 10.402 1.84003 13.2262 1.84003C16.0503 1.84003 18.3398 4.12948 18.3398 6.95368Z" fill="white"/>
<path d="M2.24341 20.1511V24.0558H14.9911C15.7951 23.1562 18.1493 20.5761 21.1353 17.4523C10.4318 13.2719 4.08092 17.5097 2.24341 20.1511Z" fill="white"/>
<path d="M16.9639 25.114L23.1795 19.0655L25.5521 21.5717L19.3699 27.7206H16.9639V25.114Z" fill="white"/>
<path d="M25.3792 17.1329L24.2488 18.2634L26.4209 20.6694L27.6144 19.5237C27.8803 19.2684 27.8952 18.848 27.648 18.5746L26.3671 17.1578C26.1055 16.8685 25.655 16.8571 25.3792 17.1329Z" fill="white"/>
<path d="M18.3398 6.95368C18.3398 9.77784 16.0503 12.0673 13.2262 12.0673C10.402 12.0673 8.11255 9.77784 8.11255 6.95368C8.11255 4.12948 10.402 1.84003 13.2262 1.84003C16.0503 1.84003 18.3398 4.12948 18.3398 6.95368Z" stroke="white"/>
<path d="M2.24341 20.1511V24.0558H14.9911C15.7951 23.1562 18.1493 20.5761 21.1353 17.4523C10.4318 13.2719 4.08092 17.5097 2.24341 20.1511Z" stroke="white"/>
<path d="M16.9639 25.114L23.1795 19.0655L25.5521 21.5717L19.3699 27.7206H16.9639V25.114Z" stroke="white"/>
<path d="M25.3792 17.1329L24.2488 18.2634L26.4209 20.6694L27.6144 19.5237C27.8803 19.2684 27.8952 18.848 27.648 18.5746L26.3671 17.1578C26.1055 16.8685 25.655 16.8571 25.3792 17.1329Z" stroke="white"/>
</svg>
