<svg width="31" height="31" viewBox="0 0 31 31" fill="none" xmlns="http://www.w3.org/2000/svg">
<path d="M21.3383 18.7716H20.1065L19.6698 18.3505C21.198 16.5729 22.118 14.2651 22.118 11.7546C22.118 6.15657 17.5803 1.6189 11.9823 1.6189C6.38434 1.6189 1.84668 6.15657 1.84668 11.7546C1.84668 17.3526 6.38434 21.8902 11.9823 21.8902C14.4929 21.8902 16.8007 20.9702 18.5783 19.4421L18.9993 19.8787V21.1105L26.796 28.8917L29.1194 26.5682L21.3383 18.7716ZM11.9823 18.7716C8.09958 18.7716 4.96534 15.6373 4.96534 11.7546C4.96534 7.87181 8.09958 4.73757 11.9823 4.73757C15.8651 4.73757 18.9993 7.87181 18.9993 11.7546C18.9993 15.6373 15.8651 18.7716 11.9823 18.7716Z" fill="white"/>
<path d="M11.6999 11.4142C13.0879 11.4142 14.2132 10.289 14.2132 8.90088C14.2132 7.5128 13.0879 6.38754 11.6999 6.38754C10.3118 6.38754 9.18652 7.5128 9.18652 8.90088C9.18652 10.289 10.3118 11.4142 11.6999 11.4142Z" fill="white"/>
<path d="M16.2097 15.9329V15.1522C16.2097 14.4687 15.9295 13.806 15.4445 13.3244C14.9735 12.8564 14.329 12.5864 13.665 12.5864C13.2472 12.5864 12.8426 12.712 12.4436 12.8358L12.4325 12.8392C12.0127 12.9694 11.6405 12.9785 11.3341 12.9278C10.7757 12.8355 10.2244 12.5864 9.6585 12.5864C9.04323 12.5864 8.45298 12.8298 8.01648 13.2634L7.94748 13.3319C7.46263 13.8135 7.18994 14.4687 7.18994 15.1522V15.9329H16.2097Z" fill="white" stroke="white"/>
</svg>
