<svg width="44" height="44" viewBox="0 0 44 44" fill="none" xmlns="http://www.w3.org/2000/svg">
<rect width="43" height="43" transform="translate(0.549377 0.177673)" fill="white"/>
<path d="M30.6371 26.8349H28.8304L28.19 26.2174C30.4313 23.6102 31.7807 20.2254 31.7807 16.5433C31.7807 8.33291 25.1254 1.67767 16.915 1.67767C8.70461 1.67767 2.04938 8.33291 2.04938 16.5433C2.04938 24.7537 8.70461 31.4089 16.915 31.4089C20.5971 31.4089 23.9819 30.0596 26.5891 27.8183L27.2066 28.4587V30.2654L38.6417 41.6777L42.0494 38.27L30.6371 26.8349V26.8349ZM16.915 26.8349C11.2203 26.8349 6.62342 22.238 6.62342 16.5433C6.62342 10.8486 11.2203 6.25172 16.915 6.25172C22.6097 6.25172 27.2066 10.8486 27.2066 16.5433C27.2066 22.238 22.6097 26.8349 16.915 26.8349Z" fill="#4D4D4D"/>
<circle cx="16.5006" cy="12.3579" r="3.68623" fill="#4D4D4D"/>
<path d="M23.115 22.6716V21.5265C23.115 20.5241 22.704 19.5521 21.9928 18.8457C21.3019 18.1593 20.3567 17.7634 19.3828 17.7634C18.7701 17.7634 18.1766 17.9475 17.5914 18.1291L17.5752 18.1341C16.9594 18.3251 16.4136 18.3384 15.9641 18.2641C15.1452 18.1287 14.3366 17.7634 13.5066 17.7634C12.6042 17.7634 11.7385 18.1203 11.0983 18.7562L10.9971 18.8567C10.286 19.5631 9.88605 20.5241 9.88605 21.5265V22.6716H23.115Z" fill="#4D4D4D" stroke="#4D4D4D"/>
</svg>
