<svg width="44" height="44" viewBox="0 0 44 44" fill="none" xmlns="http://www.w3.org/2000/svg">
<g clip-path="url(#clip0_181_80)">
<rect width="43" height="43" transform="translate(0.549377 0.177673)" fill="white"/>
<path d="M38.5488 9.05365C29.2435 12.7904 12.6298 10.6106 5.48604 9.05365C5.24812 10.0463 4.7102 12.2797 4.46198 13.2723C7.7127 14.1904 13.6124 15.061 16.1559 15.3815V42.6777H20.0952V30.0842H24.0346V42.6777H27.9429V15.3815C29.9529 15.3567 36.5763 13.965 39.6368 13.2723C39.4093 12.3831 38.8733 10.2945 38.5488 9.05365Z" fill="#4D4D4D"/>
<path d="M25.9754 4.86566C25.9754 7.17863 24.2177 9.05365 22.0493 9.05365C19.881 9.05365 18.1232 7.17863 18.1232 4.86566C18.1232 2.5527 19.881 0.677673 22.0493 0.677673C24.2177 0.677673 25.9754 2.5527 25.9754 4.86566Z" fill="#4D4D4D"/>
<path d="M25.7668 3.97086C25.7668 5.061 24.99 5.84514 24.1478 5.84514C23.3057 5.84514 22.5289 5.061 22.5289 3.97086C22.5289 2.88073 23.3057 2.09659 24.1478 2.09659C24.99 2.09659 25.7668 2.88073 25.7668 3.97086Z" fill="white" stroke="#4D4D4D"/>
<path d="M37.2618 13.1487C37.2618 14.2389 36.485 15.023 35.6428 15.023C34.8007 15.023 34.0239 14.2389 34.0239 13.1487C34.0239 12.0586 34.8007 11.2744 35.6428 11.2744C36.485 11.2744 37.2618 12.0586 37.2618 13.1487Z" fill="white" stroke="#4D4D4D"/>
<path d="M25.7873 16.2261C25.7873 17.3162 25.0105 18.1003 24.1683 18.1003C23.3261 18.1003 22.5493 17.3162 22.5493 16.2261C22.5493 15.1359 23.3261 14.3518 24.1683 14.3518C25.0105 14.3518 25.7873 15.1359 25.7873 16.2261Z" fill="white" stroke="#4D4D4D"/>
<path d="M20.0498 19.3034C20.0498 20.3935 19.273 21.1777 18.4308 21.1777C17.5886 21.1777 16.8118 20.3935 16.8118 19.3034C16.8118 18.2133 17.5886 17.4291 18.4308 17.4291C19.273 17.4291 20.0498 18.2133 20.0498 19.3034Z" fill="white" stroke="#4D4D4D"/>
<path d="M25.7873 24.4323C25.7873 25.5224 25.0105 26.3066 24.1683 26.3066C23.3261 26.3066 22.5493 25.5224 22.5493 24.4323C22.5493 23.3422 23.3261 22.558 24.1683 22.558C25.0105 22.558 25.7873 23.3422 25.7873 24.4323Z" fill="white" stroke="#4D4D4D"/>
</g>
<defs>
<clipPath id="clip0_181_80">
<rect width="43" height="43" fill="white" transform="translate(0.549377 0.177673)"/>
</clipPath>
</defs>
</svg>
