<svg width="31" height="31" viewBox="0 0 31 31" fill="none" xmlns="http://www.w3.org/2000/svg">
<path d="M27.4607 7.16302C20.9686 9.77006 9.37768 8.24927 4.39366 7.16302C4.22767 7.85557 3.85238 9.41376 3.6792 10.1063C5.94714 10.7468 10.0632 11.3542 11.8377 11.5778V30.6217H14.5861V21.8355H17.3345V30.6217H20.0612V11.5778C21.4636 11.5605 26.0845 10.5895 28.2198 10.1063C28.061 9.4859 27.6871 8.02873 27.4607 7.16302Z" fill="white"/>
<path d="M18.6885 4.24113C18.6885 5.85483 17.4622 7.16298 15.9493 7.16298C14.4366 7.16298 13.2102 5.85483 13.2102 4.24113C13.2102 2.62743 14.4366 1.31927 15.9493 1.31927C17.4622 1.31927 18.6885 2.62743 18.6885 4.24113Z" fill="white"/>
<path d="M18.5432 3.6169C18.5432 4.37746 18.0012 4.92453 17.4136 4.92453C16.8261 4.92453 16.2842 4.37746 16.2842 3.6169C16.2842 2.85634 16.8261 2.30927 17.4136 2.30927C18.0012 2.30927 18.5432 2.85634 18.5432 3.6169Z" fill="white" stroke="#EF808F"/>
<path d="M26.5627 10.02C26.5627 10.7806 26.0208 11.3276 25.4332 11.3276C24.8457 11.3276 24.3037 10.7806 24.3037 10.02C24.3037 9.25946 24.8457 8.71234 25.4332 8.71234C26.0208 8.71234 26.5627 9.25946 26.5627 10.02Z" fill="white" stroke="#EF808F"/>
<path d="M18.5574 12.167C18.5574 12.9276 18.0155 13.4746 17.4279 13.4746C16.8403 13.4746 16.2983 12.9276 16.2983 12.167C16.2983 11.4064 16.8403 10.8594 17.4279 10.8594C18.0155 10.8594 18.5574 11.4064 18.5574 12.167Z" fill="white" stroke="#EF808F"/>
<path d="M14.5545 14.314C14.5545 15.0745 14.0125 15.6216 13.4249 15.6216C12.8374 15.6216 12.2954 15.0745 12.2954 14.314C12.2954 13.5535 12.8374 13.0063 13.4249 13.0063C14.0125 13.0063 14.5545 13.5535 14.5545 14.314Z" fill="white" stroke="#EF808F"/>
<path d="M18.5574 17.8923C18.5574 18.6528 18.0155 19.2 17.4279 19.2C16.8403 19.2 16.2983 18.6528 16.2983 17.8923C16.2983 17.1318 16.8403 16.5847 17.4279 16.5847C18.0155 16.5847 18.5574 17.1318 18.5574 17.8923Z" fill="white" stroke="#EF808F"/>
</svg>
